<?xml version="1.0" encoding="UTF-8" standalone="no"?>
<!-- Created with Inkscape (http://www.inkscape.org/) -->

<svg
   width="69.025238mm"
   height="82.471245mm"
   viewBox="0 0 69.025238 82.471245"
   version="1.1"
   id="svg1"
   inkscape:version="1.4 (e7c3feb1, 2024-10-09)"
   sodipodi:docname="frequency-detection.svg"
   xmlns:inkscape="http://www.inkscape.org/namespaces/inkscape"
   xmlns:sodipodi="http://sodipodi.sourceforge.net/DTD/sodipodi-0.dtd"
   xmlns="http://www.w3.org/2000/svg"
   xmlns:svg="http://www.w3.org/2000/svg">
  <sodipodi:namedview
     id="namedview1"
     pagecolor="#ffffff"
     bordercolor="#000000"
     borderopacity="0.25"
     inkscape:showpageshadow="2"
     inkscape:pageopacity="0.0"
     inkscape:pagecheckerboard="0"
     inkscape:deskcolor="#d1d1d1"
     inkscape:document-units="mm"
     showgrid="true"
     inkscape:zoom="3.7759502"
     inkscape:cx="160.22457"
     inkscape:cy="179.42504"
     inkscape:window-width="2736"
     inkscape:window-height="1536"
     inkscape:window-x="0"
     inkscape:window-y="25"
     inkscape:window-maximized="0"
     inkscape:current-layer="layer4">
    <inkscape:grid
       id="grid1"
       units="mm"
       originx="-0.84432144"
       originy="-0.82760842"
       spacingx="0.025000001"
       spacingy="0.025"
       empcolor="#0099e5"
       empopacity="0.30196078"
       color="#0099e5"
       opacity="0.14901961"
       empspacing="4"
       enabled="true"
       visible="true" />
  </sodipodi:namedview>
  <defs
     id="defs1">
    <rect
       x="90.708664"
       y="314.4567"
       width="39.253883"
       height="36.510326"
       id="rect10" />
    <rect
       x="208.62993"
       y="371.90552"
       width="45.354332"
       height="33.259842"
       id="rect9" />
    <rect
       x="247.93703"
       y="108.85039"
       width="43.82328"
       height="18.360954"
       id="rect5" />
    <marker
       style="overflow:visible"
       id="marker5_Fnone_S-000000"
       refX="0"
       refY="0"
       orient="auto-start-reverse"
       inkscape:stockid="Concave triangle arrow"
       markerWidth="1"
       markerHeight="1"
       viewBox="0 0 1 1"
       inkscape:isstock="true"
       inkscape:collect="always"
       preserveAspectRatio="xMidYMid">
      <path
         transform="scale(0.7)"
         d="M -2,-4 9,0 -2,4 c 2,-2.33 2,-5.66 0,-8 z"
         style="fill:#000000;fill-rule:evenodd;stroke:none"
         id="path9" />
    </marker>
    <marker
       style="overflow:visible"
       id="ConcaveTriangle_Fnone_S-000000"
       refX="0"
       refY="0"
       orient="-180.00"
       inkscape:stockid="Concave triangle arrow"
       markerWidth="1"
       markerHeight="1"
       viewBox="0 0 1 1"
       inkscape:isstock="true"
       inkscape:collect="always"
       preserveAspectRatio="xMidYMid">
      <path
         transform="scale(0.7)"
         d="M -2,-4 9,0 -2,4 c 2,-2.33 2,-5.66 0,-8 z"
         style="fill:#000000;fill-rule:evenodd;stroke:none"
         id="path10" />
    </marker>
    <marker
       style="overflow:visible"
       id="ConcaveTriangle-75_reversed"
       refX="0"
       refY="0"
       orient="auto"
       inkscape:stockid="Concave triangle arrow"
       markerWidth="1"
       markerHeight="1"
       viewBox="0 0 1 1"
       inkscape:isstock="true"
       inkscape:collect="always"
       preserveAspectRatio="xMidYMid">
      <g
         transform="rotate(180,0,0)"
         id="g6">
        <path
           d="M -1.4,-2.8 6.3,0 -1.4,2.8 C 0,1.169 0,-1.162 -1.4,-2.8 Z"
           style="fill:context-stroke;fill-rule:evenodd;stroke:none;stroke-width:0.7"
           id="path6" />
      </g>
    </marker>
    <marker
       style="overflow:visible"
       id="ConcaveTriangle-7-5_F-000000_S-000000"
       refX="0"
       refY="0"
       orient="0.00"
       inkscape:stockid="Concave triangle arrow"
       markerWidth="1"
       markerHeight="1"
       viewBox="0 0 1 1"
       inkscape:isstock="true"
       inkscape:collect="always"
       preserveAspectRatio="xMidYMid">
      <path
         transform="scale(0.7)"
         d="M -2,-4 9,0 -2,4 c 2,-2.33 2,-5.66 0,-8 z"
         style="fill:#000000;fill-rule:evenodd;stroke:none"
         id="path11" />
    </marker>
    <rect
       x="247.93703"
       y="108.85039"
       width="43.82328"
       height="18.360954"
       id="rect5-2" />
    <rect
       x="247.93703"
       y="108.85039"
       width="43.82328"
       height="18.360954"
       id="rect5-2-9" />
    <rect
       x="247.93703"
       y="108.85039"
       width="43.82328"
       height="18.360954"
       id="rect5-2-6" />
    <marker
       style="overflow:visible"
       id="ConcaveTriangle-75_F-000000_S-000000"
       refX="0"
       refY="0"
       orient="auto-start-reverse"
       inkscape:stockid="Concave triangle arrow"
       markerWidth="1"
       markerHeight="1"
       viewBox="0 0 1 1"
       inkscape:isstock="true"
       inkscape:collect="always"
       preserveAspectRatio="xMidYMid">
      <path
         d="M -1.4,-2.8 6.3,0 -1.4,2.8 C 0,1.169 0,-1.162 -1.4,-2.8 Z"
         style="fill:#000000;fill-rule:evenodd;stroke:none;stroke-width:0.7"
         id="path1" />
    </marker>
    <marker
       style="overflow:visible"
       id="ConcaveTriangle-75_F-000000_S-000000_reversed"
       refX="0"
       refY="0"
       orient="auto"
       inkscape:stockid="Concave triangle arrow"
       markerWidth="1"
       markerHeight="1"
       viewBox="0 0 1 1"
       inkscape:isstock="true"
       inkscape:collect="always"
       preserveAspectRatio="xMidYMid">
      <g
         transform="rotate(180,0,0)"
         id="g5">
        <path
           d="M -1.4,-2.8 6.3,0 -1.4,2.8 C 0,1.169 0,-1.162 -1.4,-2.8 Z"
           style="fill:#000000;fill-rule:evenodd;stroke:none;stroke-width:0.7"
           id="path5" />
      </g>
    </marker>
  </defs>
  <g
     inkscape:label="Ebene 1"
     inkscape:groupmode="layer"
     id="layer1"
     transform="translate(-0.84432142,-0.82760839)">
    <path
       style="fill:none;stroke:#000000;stroke-width:0.589242;stroke-dasharray:none;stroke-opacity:1"
       d="m 2.6000644,24.246191 c 1.42197,-2.906604 2.84394,-5.80081 4.26591,-7.996899 1.421814,-2.196086 2.843784,-3.675299 4.2657546,-4.087304 1.42197,-0.412004 2.84394,0.246695 4.26591,1.820326 1.42197,1.573311 2.843784,4.048201 4.265754,6.838134 1.421971,2.789617 2.843941,5.870751 4.265911,8.512859 1.42197,2.642109 2.84394,4.823255 4.265754,6.025889 1.42197,1.202953 2.843941,1.417537 4.265911,0.593211 1.42197,-0.824647 2.84394,-2.681211 4.26591,-5.130032 1.421814,-2.448822 2.843162,-5.46892 4.266221,-8.344688 1.421504,-2.876087 2.843007,-5.583364 4.266066,-7.480303 1.421503,-1.896939 2.843007,-2.967962 4.26451,-2.958743 1.423059,0.0092 2.844563,1.098362 4.266066,3.009289 1.423059,1.910926 2.84457,4.627743 4.26607,7.506054 1.4215,2.87863 2.84456,5.894595 4.26606,8.333243"
       title="sin(x)"
       id="path2" />
    <path
       style="fill:none;stroke:#000000;stroke-width:0.264999;stroke-dasharray:none;stroke-opacity:1"
       d="m 2.6000644,24.293056 5.723906,-0.004 -0.123907,-14.3959502 7.2000006,-4.9e-5 0.311765,14.3959492 30.088236,0.004 V 9.8930068 h 7.200001 l 0.114788,14.3999992"
       id="path3"
       sodipodi:nodetypes="ccccccccc" />
    <path
       style="fill:none;stroke:#000000;stroke-width:0.264999;stroke-dasharray:none;stroke-opacity:1;marker-start:url(#ConcaveTriangle_Fnone_S-000000);marker-end:url(#marker5_Fnone_S-000000)"
       d="M 9.8000644,7.4461923 H 44.200065"
       id="path4"
       sodipodi:nodetypes="cc" />
    <text
       xml:space="preserve"
       transform="matrix(0.26458333,0,0,0.26458333,-39.037437,-25.895474)"
       id="text5"
       style="text-align:start;writing-mode:lr-tb;direction:ltr;white-space:pre;shape-inside:url(#rect5);display:inline;fill:none;stroke:#000000;stroke-width:1.00157;stroke-dasharray:none;stroke-opacity:1"><tspan
         x="247.9375"
         y="119.79757"
         id="tspan6"><tspan
           style="font-size:12px;font-family:Arial;-inkscape-font-specification:'Arial, Normal';fill:#000000;stroke:none"
           id="tspan5">dt</tspan></tspan></text>
    <path
       style="fill:none;stroke:#000000;stroke-width:0.589242;stroke-dasharray:none;stroke-opacity:1"
       d="m 2.4441824,66.648215 c 1.42197,-2.906604 2.84394,-5.80081 4.26591,-7.996899 1.421814,-2.196086 2.843784,-3.675299 4.2657546,-4.087304 1.42197,-0.412004 2.84394,0.246695 4.26591,1.820326 1.42197,1.573311 2.843784,4.048201 4.265754,6.838134 1.421971,2.789617 2.843941,5.870751 4.265911,8.512859 1.42197,2.642111 2.84394,4.823251 4.265754,6.025891 1.42197,1.20295 2.843941,1.41754 4.265911,0.59321 1.42197,-0.82465 2.84394,-2.68121 4.26591,-5.13003 1.421814,-2.448825 2.843162,-5.468923 4.266221,-8.344691 1.421504,-2.876087 2.843007,-5.583364 4.266066,-7.480303 1.421503,-1.896939 2.843007,-2.967962 4.26451,-2.958743 1.423059,0.0092 2.844563,1.098362 4.266066,3.009289 1.423059,1.910926 2.844572,4.627743 4.266072,7.506054 1.4215,2.87863 2.84456,5.894595 4.26606,8.333244"
       title="sin(x)"
       id="path3-3" />
    <text
       xml:space="preserve"
       transform="matrix(0.26458333,0,0,0.26458333,-53.549301,15.521478)"
       id="text5-0"
       style="text-align:start;writing-mode:lr-tb;direction:ltr;white-space:pre;shape-inside:url(#rect5-2);display:inline;fill:none;stroke:#000000;stroke-width:1.00157;stroke-dasharray:none;stroke-opacity:1"><tspan
         x="247.9375"
         y="119.79757"
         id="tspan9"><tspan
           style="font-style:italic;font-size:7.8px;font-family:Arial;-inkscape-font-specification:'Arial, Italic';fill:#1a1a1a;stroke:none"
           id="tspan7">t</tspan><tspan
           style="font-style:italic;font-size:7.8px;font-family:Arial;-inkscape-font-specification:'Arial, Italic';baseline-shift:sub;fill:#1a1a1a;stroke:none"
           id="tspan8">open</tspan></tspan></text>
    <path
       style="fill:#000000;stroke:#000000;stroke-width:0.264999;stroke-opacity:1"
       d="m 13.800065,53.04619 c 0,13.599998 0,13.599998 0,13.599998"
       id="path8" />
    <path
       style="fill:#000000;stroke:#000000;stroke-width:0.264999;stroke-opacity:1"
       d="m 39.862019,66.646194 c 0,13.599998 0,13.599998 0,13.599998"
       id="path8-6" />
    <path
       style="fill:#000000;stroke:#000000;stroke-width:0.264999;stroke-opacity:1"
       d="m 21.000064,53.046193 c 0,13.599998 0,13.599998 0,13.599998"
       id="path8-1" />
    <path
       style="fill:#000000;stroke:#000000;stroke-width:0.264999;stroke-opacity:1"
       d="m 32.200065,66.646193 c 0,13.599999 0,13.599999 0,13.599999"
       id="path8-1-3" />
    <text
       xml:space="preserve"
       transform="matrix(0.26458333,0,0,0.26458333,-43.799938,-26.953808)"
       id="text10"
       style="font-style:italic;font-variant:normal;font-weight:normal;font-stretch:normal;font-family:sans-serif;-inkscape-font-specification:'sans-serif Italic';text-align:start;writing-mode:lr-tb;direction:ltr;white-space:pre;shape-inside:url(#rect10);display:inline;fill:#000000;stroke:#000000;stroke-width:1.00157;stroke-dasharray:none;stroke-opacity:1" />
    <text
       xml:space="preserve"
       style="font-style:italic;font-variant:normal;font-weight:normal;font-stretch:normal;font-size:3.175px;font-family:sans-serif;-inkscape-font-specification:'sans-serif Italic';text-align:start;writing-mode:lr-tb;direction:ltr;text-anchor:start;fill:#000000;stroke:#000000;stroke-width:0.264999;stroke-dasharray:none;stroke-opacity:1"
       x="22.396976"
       y="62.475513"
       id="text12"><tspan
         sodipodi:role="line"
         id="tspan12"
         style="font-style:italic;font-variant:normal;font-weight:normal;font-stretch:normal;font-size:2.06375px;font-family:Arial;-inkscape-font-specification:'Arial, Italic';font-variant-ligatures:normal;font-variant-caps:normal;font-variant-numeric:normal;font-variant-east-asian:normal;stroke:none;stroke-width:0.265"
         x="22.396976"
         y="62.475513">t<tspan
   style="font-style:italic;font-variant:normal;font-weight:normal;font-stretch:normal;font-size:2.06375px;font-family:Arial;-inkscape-font-specification:'Arial, Italic';font-variant-ligatures:normal;font-variant-caps:normal;font-variant-numeric:normal;font-variant-east-asian:normal;baseline-shift:sub"
   id="tspan13">zero current</tspan></tspan></text>
  </g>
  <g
     inkscape:groupmode="layer"
     id="layer2"
     inkscape:label="Ebene 2">
    <path
       id="path2-0"
       style="fill:#000000;stroke:#000000;stroke-width:0.265;stroke-dasharray:none;stroke-opacity:1;marker-start:url(#ConcaveTriangle-75_reversed)"
       d="m 2.5591704,44.899132 v 38.39972 z"
       transform="translate(-0.84432143,-0.82760839)" />
  </g>
  <g
     inkscape:groupmode="layer"
     id="layer3"
     inkscape:label="Ebene 3">
    <path
       id="path1-5-0"
       style="fill:#000000;stroke:#000000;stroke-width:0.265;stroke-dasharray:none;stroke-opacity:1;marker-end:url(#ConcaveTriangle-7-5_F-000000_S-000000)"
       d="M 68.221563,24.293055 H 1.0217012 Z"
       sodipodi:nodetypes="ccc"
       transform="translate(-0.84432143,-0.82760839)" />
  </g>
  <g
     inkscape:groupmode="layer"
     id="layer5"
     inkscape:label="Ebene 5">
    <path
       id="path2-0-5"
       style="fill:#000000;stroke:#000000;stroke-width:0.265;stroke-dasharray:none;stroke-opacity:1;marker-start:url(#ConcaveTriangle-75_F-000000_S-000000_reversed)"
       d="M 2.4501421,2.5388002 V 40.93852 Z"
       transform="translate(-0.84432143,-0.82760839)" />
  </g>
  <g
     inkscape:groupmode="layer"
     id="layer4"
     inkscape:label="Ebene 4">
    <path
       id="path1-5-0-6"
       style="fill:#000000;stroke:#000000;stroke-width:0.265;stroke-dasharray:none;stroke-opacity:1;marker-end:url(#ConcaveTriangle-75_F-000000_S-000000)"
       d="M 68.188079,66.604588 H 0.95163067 Z"
       sodipodi:nodetypes="ccc"
       transform="translate(-0.84432143,-0.82760839)" />
  </g>
</svg>
