<?xml version="1.0" encoding="UTF-8" standalone="no"?>
<!-- Created with Inkscape (http://www.inkscape.org/) -->

<svg
   width="69.025238mm"
   height="82.471245mm"
   viewBox="0 0 69.025238 82.471245"
   version="1.1"
   id="svg1"
   inkscape:version="1.4 (e7c3feb100, 2024-10-09)"
   sodipodi:docname="frequency-detection.svg"
   xmlns:inkscape="http://www.inkscape.org/namespaces/inkscape"
   xmlns:sodipodi="http://sodipodi.sourceforge.net/DTD/sodipodi-0.dtd"
   xmlns="http://www.w3.org/2000/svg"
   xmlns:svg="http://www.w3.org/2000/svg">
  <sodipodi:namedview
     id="namedview1"
     pagecolor="#ffffff"
     bordercolor="#000000"
     borderopacity="0.25"
     inkscape:showpageshadow="2"
     inkscape:pageopacity="0.0"
     inkscape:pagecheckerboard="0"
     inkscape:deskcolor="#d1d1d1"
     inkscape:document-units="mm"
     showgrid="true"
     inkscape:zoom="2.67"
     inkscape:cx="102.24719"
     inkscape:cy="188.01498"
     inkscape:window-width="1920"
     inkscape:window-height="1008"
     inkscape:window-x="0"
     inkscape:window-y="0"
     inkscape:window-maximized="1"
     inkscape:current-layer="layer1">
    <inkscape:grid
       id="grid1"
       units="mm"
       originx="-44.64426"
       originy="-27.781417"
       spacingx="0.025000001"
       spacingy="0.025"
       empcolor="#0099e5"
       empopacity="0.30196078"
       color="#0099e5"
       opacity="0.14901961"
       empspacing="4"
       enabled="true"
       visible="true" />
  </sodipodi:namedview>
  <defs
     id="defs1">
    <rect
       x="90.708664"
       y="314.4567"
       width="39.253883"
       height="36.510326"
       id="rect10" />
    <rect
       x="208.62993"
       y="371.90552"
       width="45.354332"
       height="33.259842"
       id="rect9" />
    <rect
       x="247.93703"
       y="108.85039"
       width="43.82328"
       height="18.360954"
       id="rect5" />
    <marker
       style="overflow:visible"
       id="marker5"
       refX="0"
       refY="0"
       orient="auto-start-reverse"
       inkscape:stockid="Concave triangle arrow"
       markerWidth="1"
       markerHeight="1"
       viewBox="0 0 1 1"
       inkscape:isstock="true"
       inkscape:collect="always"
       preserveAspectRatio="xMidYMid">
      <path
         transform="scale(0.7)"
         d="M -2,-4 9,0 -2,4 c 2,-2.33 2,-5.66 0,-8 z"
         style="fill:context-stroke;fill-rule:evenodd;stroke:none"
         id="path5" />
    </marker>
    <marker
       style="overflow:visible"
       id="ConcaveTriangle"
       refX="0"
       refY="0"
       orient="auto-start-reverse"
       inkscape:stockid="Concave triangle arrow"
       markerWidth="1"
       markerHeight="1"
       viewBox="0 0 1 1"
       inkscape:isstock="true"
       inkscape:collect="always"
       preserveAspectRatio="xMidYMid">
      <path
         transform="scale(0.7)"
         d="M -2,-4 9,0 -2,4 c 2,-2.33 2,-5.66 0,-8 z"
         style="fill:context-stroke;fill-rule:evenodd;stroke:none"
         id="path7" />
    </marker>
    <marker
       style="overflow:visible"
       id="ConcaveTriangle-7"
       refX="0"
       refY="0"
       orient="auto-start-reverse"
       inkscape:stockid="Concave triangle arrow"
       markerWidth="1"
       markerHeight="1"
       viewBox="0 0 1 1"
       inkscape:isstock="true"
       inkscape:collect="always"
       preserveAspectRatio="xMidYMid">
      <path
         transform="scale(0.7)"
         d="M -2,-4 9,0 -2,4 c 2,-2.33 2,-5.66 0,-8 z"
         style="fill:context-stroke;fill-rule:evenodd;stroke:none"
         id="path7-5" />
    </marker>
    <marker
       style="overflow:visible"
       id="ConcaveTriangle-75"
       refX="0"
       refY="0"
       orient="auto-start-reverse"
       inkscape:stockid="Concave triangle arrow"
       markerWidth="1"
       markerHeight="1"
       viewBox="0 0 1 1"
       inkscape:isstock="true"
       inkscape:collect="always"
       preserveAspectRatio="xMidYMid">
      <path
         transform="scale(0.7)"
         d="M -2,-4 9,0 -2,4 c 2,-2.33 2,-5.66 0,-8 z"
         style="fill:context-stroke;fill-rule:evenodd;stroke:none"
         id="path7-3" />
    </marker>
    <marker
       style="overflow:visible"
       id="ConcaveTriangle-7-5"
       refX="0"
       refY="0"
       orient="auto-start-reverse"
       inkscape:stockid="Concave triangle arrow"
       markerWidth="1"
       markerHeight="1"
       viewBox="0 0 1 1"
       inkscape:isstock="true"
       inkscape:collect="always"
       preserveAspectRatio="xMidYMid">
      <path
         transform="scale(0.7)"
         d="M -2,-4 9,0 -2,4 c 2,-2.33 2,-5.66 0,-8 z"
         style="fill:context-stroke;fill-rule:evenodd;stroke:none"
         id="path7-5-6" />
    </marker>
    <rect
       x="247.93703"
       y="108.85039"
       width="43.82328"
       height="18.360954"
       id="rect5-2" />
    <rect
       x="247.93703"
       y="108.85039"
       width="43.82328"
       height="18.360954"
       id="rect5-2-9" />
    <rect
       x="247.93703"
       y="108.85039"
       width="43.82328"
       height="18.360954"
       id="rect5-2-6" />
  </defs>
  <g
     inkscape:label="Ebene 1"
     inkscape:groupmode="layer"
     id="layer1"
     transform="translate(-44.644259,-27.781416)">
    <path
       id="path1"
       style="fill:#000000;stroke:#000000;stroke-width:0.265;stroke-dasharray:none;stroke-opacity:1;marker-start:url(#ConcaveTriangle)"
       d="M 46.51499,29.450916 V 67.850639 Z" />
    <path
       id="path1-5"
       style="fill:#000000;stroke:#000000;stroke-width:0.265;stroke-dasharray:none;stroke-opacity:1;marker-start:url(#ConcaveTriangle-7)"
       d="M 112,51.199999 H 44.800141 Z"
       sodipodi:nodetypes="ccc" />
    <path
       style="fill:none;stroke:#000000;stroke-width:0.589242;stroke-dasharray:none;stroke-opacity:1"
       d="m 46.400002,51.199999 c 1.42197,-2.906604 2.84394,-5.80081 4.26591,-7.996899 1.421814,-2.196086 2.843784,-3.675299 4.265755,-4.087304 1.42197,-0.412004 2.84394,0.246695 4.26591,1.820326 1.42197,1.573311 2.843784,4.048201 4.265754,6.838134 1.421971,2.789617 2.843941,5.870751 4.265911,8.512859 1.42197,2.642109 2.84394,4.823255 4.265754,6.025889 1.42197,1.202953 2.843941,1.417537 4.265911,0.593211 1.42197,-0.824647 2.84394,-2.681211 4.26591,-5.130032 1.421814,-2.448822 2.843162,-5.46892 4.266221,-8.344688 1.421504,-2.876087 2.843007,-5.583364 4.266066,-7.480303 1.421503,-1.896939 2.843007,-2.967962 4.26451,-2.958743 1.423059,0.0092 2.844563,1.098362 4.266066,3.009289 1.423059,1.910926 2.84457,4.627743 4.26607,7.506054 1.4215,2.87863 2.84456,5.894595 4.26606,8.333243"
       title="sin(x)"
       id="path2" />
    <path
       style="fill:none;stroke:#000000;stroke-width:0.264999;stroke-dasharray:none;stroke-opacity:1"
       d="m 46.400002,51.199999 5.723906,-0.004 -0.123907,-14.39595 7.200001,-4.9e-5 0.311765,14.395949 30.088236,0.004 V 36.79995 h 7.200001 l 0.114788,14.399999"
       id="path3"
       sodipodi:nodetypes="ccccccccc" />
    <path
       style="fill:none;stroke:#000000;stroke-width:0.264999;stroke-dasharray:none;stroke-opacity:1;marker-start:url(#ConcaveTriangle);marker-end:url(#marker5)"
       d="M 53.600002,34.4 H 88.000003"
       id="path4"
       sodipodi:nodetypes="cc" />
    <text
       xml:space="preserve"
       transform="matrix(0.26458333,0,0,0.26458333,4.7625002,1.0583333)"
       id="text5"
       style="text-align:start;writing-mode:lr-tb;direction:ltr;white-space:pre;shape-inside:url(#rect5);display:inline;fill:none;stroke:#000000;stroke-width:1.00157;stroke-dasharray:none;stroke-opacity:1"><tspan
         x="247.9375"
         y="119.4668"
         id="tspan2"><tspan
           style="fill:#000000;stroke:none"
           id="tspan1">dt</tspan></tspan></text>
    <path
       id="path2-0"
       style="fill:#000000;stroke:#000000;stroke-width:0.265;stroke-dasharray:none;stroke-opacity:1;marker-start:url(#ConcaveTriangle-75)"
       d="m 46.359108,71.85294 v 38.39972 z" />
    <path
       id="path1-5-9"
       style="fill:#000000;stroke:#000000;stroke-width:0.265;stroke-dasharray:none;stroke-opacity:1;marker-start:url(#ConcaveTriangle-7-5)"
       d="M 111.84412,93.602023 H 44.644259 Z"
       sodipodi:nodetypes="ccc" />
    <path
       style="fill:none;stroke:#000000;stroke-width:0.589242;stroke-dasharray:none;stroke-opacity:1"
       d="m 46.24412,93.602023 c 1.42197,-2.906604 2.84394,-5.80081 4.26591,-7.996899 1.421814,-2.196086 2.843784,-3.675299 4.265755,-4.087304 1.42197,-0.412004 2.84394,0.246695 4.26591,1.820326 1.42197,1.573311 2.843784,4.048201 4.265754,6.838134 1.421971,2.789617 2.843941,5.870751 4.265911,8.512859 1.42197,2.642111 2.84394,4.823251 4.265754,6.025891 1.42197,1.20295 2.843941,1.41754 4.265911,0.59321 1.42197,-0.82465 2.84394,-2.68121 4.26591,-5.13003 1.421814,-2.448825 2.843162,-5.468923 4.266221,-8.344691 1.421504,-2.876087 2.843007,-5.583364 4.266066,-7.480303 1.421503,-1.896939 2.843007,-2.967962 4.26451,-2.958743 1.423059,0.0092 2.844563,1.098362 4.266066,3.009289 1.423059,1.910926 2.844572,4.627743 4.266072,7.506054 1.4215,2.87863 2.84456,5.894595 4.26606,8.333244"
       title="sin(x)"
       id="path3-3" />
    <text
       xml:space="preserve"
       transform="matrix(0.26458333,0,0,0.26458333,-9.7493633,42.475286)"
       id="text5-0"
       style="text-align:start;writing-mode:lr-tb;direction:ltr;white-space:pre;shape-inside:url(#rect5-2);display:inline;fill:none;stroke:#000000;stroke-width:1.00157;stroke-dasharray:none;stroke-opacity:1"><tspan
         x="247.9375"
         y="119.4668"
         id="tspan5"><tspan
           style="font-style:italic;-inkscape-font-specification:'sans-serif Italic';fill:#000000;stroke:none"
           id="tspan3">t</tspan><tspan
           style="font-size:65%;baseline-shift:sub;fill:#000000;stroke:none"
           id="tspan4">open</tspan></tspan></text>
    <path
       style="fill:#000000;stroke:#000000;stroke-width:0.264999;stroke-opacity:1"
       d="m 57.600003,79.999998 c 0,13.599998 0,13.599998 0,13.599998"
       id="path8" />
    <path
       style="fill:#000000;stroke:#000000;stroke-width:0.264999;stroke-opacity:1"
       d="m 83.661957,93.600002 c 0,13.599998 0,13.599998 0,13.599998"
       id="path8-6" />
    <path
       style="fill:#000000;stroke:#000000;stroke-width:0.264999;stroke-opacity:1"
       d="m 64.800002,80.000001 c 0,13.599998 0,13.599998 0,13.599998"
       id="path8-1" />
    <path
       style="fill:#000000;stroke:#000000;stroke-width:0.264999;stroke-opacity:1"
       d="m 76.000003,93.600001 c 0,13.599999 0,13.599999 0,13.599999"
       id="path8-1-3" />
    <text
       xml:space="preserve"
       transform="scale(0.26458333)"
       id="text10"
       style="font-style:italic;font-variant:normal;font-weight:normal;font-stretch:normal;font-family:sans-serif;-inkscape-font-specification:'sans-serif Italic';text-align:start;writing-mode:lr-tb;direction:ltr;white-space:pre;shape-inside:url(#rect10);display:inline;fill:#000000;stroke:#000000;stroke-width:1.00157;stroke-dasharray:none;stroke-opacity:1" />
    <text
       xml:space="preserve"
       style="font-style:italic;font-variant:normal;font-weight:normal;font-stretch:normal;font-size:3.175px;font-family:sans-serif;-inkscape-font-specification:'sans-serif Italic';text-align:start;writing-mode:lr-tb;direction:ltr;text-anchor:start;fill:#000000;stroke:#000000;stroke-width:0.264999;stroke-dasharray:none;stroke-opacity:1"
       x="66.196915"
       y="89.429321"
       id="text12"><tspan
         sodipodi:role="line"
         id="tspan12"
         style="font-style:normal;font-variant:normal;font-weight:normal;font-stretch:normal;font-family:sans-serif;-inkscape-font-specification:sans-serif;stroke:none;stroke-width:0.265"
         x="66.196915"
         y="89.429321"><tspan
           style="font-style:italic;font-variant:normal;font-weight:normal;font-stretch:normal;font-family:sans-serif;-inkscape-font-specification:'sans-serif Italic'"
           id="tspan14">t</tspan><tspan
           style="font-size:65%;baseline-shift:sub"
           id="tspan13">zero current</tspan></tspan></text>
  </g>
</svg>
